<?xml version='1.0' encoding='UTF-8'?>
<svg width="29mm" height="29mm" version="1.1" xmlns="http://www.w3.org/2000/svg"><rect x="0mm" y="0mm" width="1mm" height="1mm" /><rect x="1mm" y="0mm" width="1mm" height="1mm" /><rect x="2mm" y="0mm" width="1mm" height="1mm" /><rect x="3mm" y="0mm" width="1mm" height="1mm" /><rect x="4mm" y="0mm" width="1mm" height="1mm" /><rect x="5mm" y="0mm" width="1mm" height="1mm" /><rect x="6mm" y="0mm" width="1mm" height="1mm" /><rect x="8mm" y="0mm" width="1mm" height="1mm" /><rect x="9mm" y="0mm" width="1mm" height="1mm" /><rect x="10mm" y="0mm" width="1mm" height="1mm" /><rect x="11mm" y="0mm" width="1mm" height="1mm" /><rect x="14mm" y="0mm" width="1mm" height="1mm" /><rect x="18mm" y="0mm" width="1mm" height="1mm" /><rect x="20mm" y="0mm" width="1mm" height="1mm" /><rect x="22mm" y="0mm" width="1mm" height="1mm" /><rect x="23mm" y="0mm" width="1mm" height="1mm" /><rect x="24mm" y="0mm" width="1mm" height="1mm" /><rect x="25mm" y="0mm" width="1mm" height="1mm" /><rect x="26mm" y="0mm" width="1mm" height="1mm" /><rect x="27mm" y="0mm" width="1mm" height="1mm" /><rect x="28mm" y="0mm" width="1mm" height="1mm" /><rect x="0mm" y="1mm" width="1mm" height="1mm" /><rect x="6mm" y="1mm" width="1mm" height="1mm" /><rect x="8mm" y="1mm" width="1mm" height="1mm" /><rect x="9mm" y="1mm" width="1mm" height="1mm" /><rect x="13mm" y="1mm" width="1mm" height="1mm" /><rect x="14mm" y="1mm" width="1mm" height="1mm" /><rect x="16mm" y="1mm" width="1mm" height="1mm" /><rect x="22mm" y="1mm" width="1mm" height="1mm" /><rect x="28mm" y="1mm" width="1mm" height="1mm" /><rect x="0mm" y="2mm" width="1mm" height="1mm" /><rect x="2mm" y="2mm" width="1mm" height="1mm" /><rect x="3mm" y="2mm" width="1mm" height="1mm" /><rect x="4mm" y="2mm" width="1mm" height="1mm" /><rect x="6mm" y="2mm" width="1mm" height="1mm" /><rect x="9mm" y="2mm" width="1mm" height="1mm" /><rect x="11mm" y="2mm" width="1mm" height="1mm" /><rect x="13mm" y="2mm" width="1mm" height="1mm" /><rect x="18mm" y="2mm" width="1mm" height="1mm" /><rect x="19mm" y="2mm" width="1mm" height="1mm" /><rect x="20mm" y="2mm" width="1mm" height="1mm" /><rect x="22mm" y="2mm" width="1mm" height="1mm" /><rect x="24mm" y="2mm" width="1mm" height="1mm" /><rect x="25mm" y="2mm" width="1mm" height="1mm" /><rect x="26mm" y="2mm" width="1mm" height="1mm" /><rect x="28mm" y="2mm" width="1mm" height="1mm" /><rect x="0mm" y="3mm" width="1mm" height="1mm" /><rect x="2mm" y="3mm" width="1mm" height="1mm" /><rect x="3mm" y="3mm" width="1mm" height="1mm" /><rect x="4mm" y="3mm" width="1mm" height="1mm" /><rect x="6mm" y="3mm" width="1mm" height="1mm" /><rect x="8mm" y="3mm" width="1mm" height="1mm" /><rect x="9mm" y="3mm" width="1mm" height="1mm" /><rect x="11mm" y="3mm" width="1mm" height="1mm" /><rect x="14mm" y="3mm" width="1mm" height="1mm" /><rect x="15mm" y="3mm" width="1mm" height="1mm" /><rect x="16mm" y="3mm" width="1mm" height="1mm" /><rect x="17mm" y="3mm" width="1mm" height="1mm" /><rect x="18mm" y="3mm" width="1mm" height="1mm" /><rect x="22mm" y="3mm" width="1mm" height="1mm" /><rect x="24mm" y="3mm" width="1mm" height="1mm" /><rect x="25mm" y="3mm" width="1mm" height="1mm" /><rect x="26mm" y="3mm" width="1mm" height="1mm" /><rect x="28mm" y="3mm" width="1mm" height="1mm" /><rect x="0mm" y="4mm" width="1mm" height="1mm" /><rect x="2mm" y="4mm" width="1mm" height="1mm" /><rect x="3mm" y="4mm" width="1mm" height="1mm" /><rect x="4mm" y="4mm" width="1mm" height="1mm" /><rect x="6mm" y="4mm" width="1mm" height="1mm" /><rect x="11mm" y="4mm" width="1mm" height="1mm" /><rect x="12mm" y="4mm" width="1mm" height="1mm" /><rect x="14mm" y="4mm" width="1mm" height="1mm" /><rect x="15mm" y="4mm" width="1mm" height="1mm" /><rect x="17mm" y="4mm" width="1mm" height="1mm" /><rect x="18mm" y="4mm" width="1mm" height="1mm" /><rect x="19mm" y="4mm" width="1mm" height="1mm" /><rect x="22mm" y="4mm" width="1mm" height="1mm" /><rect x="24mm" y="4mm" width="1mm" height="1mm" /><rect x="25mm" y="4mm" width="1mm" height="1mm" /><rect x="26mm" y="4mm" width="1mm" height="1mm" /><rect x="28mm" y="4mm" width="1mm" height="1mm" /><rect x="0mm" y="5mm" width="1mm" height="1mm" /><rect x="6mm" y="5mm" width="1mm" height="1mm" /><rect x="10mm" y="5mm" width="1mm" height="1mm" /><rect x="11mm" y="5mm" width="1mm" height="1mm" /><rect x="12mm" y="5mm" width="1mm" height="1mm" /><rect x="13mm" y="5mm" width="1mm" height="1mm" /><rect x="19mm" y="5mm" width="1mm" height="1mm" /><rect x="20mm" y="5mm" width="1mm" height="1mm" /><rect x="22mm" y="5mm" width="1mm" height="1mm" /><rect x="28mm" y="5mm" width="1mm" height="1mm" /><rect x="0mm" y="6mm" width="1mm" height="1mm" /><rect x="1mm" y="6mm" width="1mm" height="1mm" /><rect x="2mm" y="6mm" width="1mm" height="1mm" /><rect x="3mm" y="6mm" width="1mm" height="1mm" /><rect x="4mm" y="6mm" width="1mm" height="1mm" /><rect x="5mm" y="6mm" width="1mm" height="1mm" /><rect x="6mm" y="6mm" width="1mm" height="1mm" /><rect x="8mm" y="6mm" width="1mm" height="1mm" /><rect x="10mm" y="6mm" width="1mm" height="1mm" /><rect x="12mm" y="6mm" width="1mm" height="1mm" /><rect x="14mm" y="6mm" width="1mm" height="1mm" /><rect x="16mm" y="6mm" width="1mm" height="1mm" /><rect x="18mm" y="6mm" width="1mm" height="1mm" /><rect x="20mm" y="6mm" width="1mm" height="1mm" /><rect x="22mm" y="6mm" width="1mm" height="1mm" /><rect x="23mm" y="6mm" width="1mm" height="1mm" /><rect x="24mm" y="6mm" width="1mm" height="1mm" /><rect x="25mm" y="6mm" width="1mm" height="1mm" /><rect x="26mm" y="6mm" width="1mm" height="1mm" /><rect x="27mm" y="6mm" width="1mm" height="1mm" /><rect x="28mm" y="6mm" width="1mm" height="1mm" /><rect x="8mm" y="7mm" width="1mm" height="1mm" /><rect x="15mm" y="7mm" width="1mm" height="1mm" /><rect x="16mm" y="7mm" width="1mm" height="1mm" /><rect x="17mm" y="7mm" width="1mm" height="1mm" /><rect x="0mm" y="8mm" width="1mm" height="1mm" /><rect x="2mm" y="8mm" width="1mm" height="1mm" /><rect x="3mm" y="8mm" width="1mm" height="1mm" /><rect x="5mm" y="8mm" width="1mm" height="1mm" /><rect x="6mm" y="8mm" width="1mm" height="1mm" /><rect x="7mm" y="8mm" width="1mm" height="1mm" /><rect x="10mm" y="8mm" width="1mm" height="1mm" /><rect x="13mm" y="8mm" width="1mm" height="1mm" /><rect x="14mm" y="8mm" width="1mm" height="1mm" /><rect x="18mm" y="8mm" width="1mm" height="1mm" /><rect x="19mm" y="8mm" width="1mm" height="1mm" /><rect x="20mm" y="8mm" width="1mm" height="1mm" /><rect x="22mm" y="8mm" width="1mm" height="1mm" /><rect x="25mm" y="8mm" width="1mm" height="1mm" /><rect x="27mm" y="8mm" width="1mm" height="1mm" /><rect x="28mm" y="8mm" width="1mm" height="1mm" /><rect x="3mm" y="9mm" width="1mm" height="1mm" /><rect x="4mm" y="9mm" width="1mm" height="1mm" /><rect x="10mm" y="9mm" width="1mm" height="1mm" /><rect x="11mm" y="9mm" width="1mm" height="1mm" /><rect x="12mm" y="9mm" width="1mm" height="1mm" /><rect x="18mm" y="9mm" width="1mm" height="1mm" /><rect x="19mm" y="9mm" width="1mm" height="1mm" /><rect x="21mm" y="9mm" width="1mm" height="1mm" /><rect x="23mm" y="9mm" width="1mm" height="1mm" /><rect x="24mm" y="9mm" width="1mm" height="1mm" /><rect x="27mm" y="9mm" width="1mm" height="1mm" /><rect x="1mm" y="10mm" width="1mm" height="1mm" /><rect x="3mm" y="10mm" width="1mm" height="1mm" /><rect x="5mm" y="10mm" width="1mm" height="1mm" /><rect x="6mm" y="10mm" width="1mm" height="1mm" /><rect x="7mm" y="10mm" width="1mm" height="1mm" /><rect x="9mm" y="10mm" width="1mm" height="1mm" /><rect x="10mm" y="10mm" width="1mm" height="1mm" /><rect x="12mm" y="10mm" width="1mm" height="1mm" /><rect x="13mm" y="10mm" width="1mm" height="1mm" /><rect x="14mm" y="10mm" width="1mm" height="1mm" /><rect x="16mm" y="10mm" width="1mm" height="1mm" /><rect x="17mm" y="10mm" width="1mm" height="1mm" /><rect x="18mm" y="10mm" width="1mm" height="1mm" /><rect x="20mm" y="10mm" width="1mm" height="1mm" /><rect x="21mm" y="10mm" width="1mm" height="1mm" /><rect x="23mm" y="10mm" width="1mm" height="1mm" /><rect x="25mm" y="10mm" width="1mm" height="1mm" /><rect x="27mm" y="10mm" width="1mm" height="1mm" /><rect x="0mm" y="11mm" width="1mm" height="1mm" /><rect x="2mm" y="11mm" width="1mm" height="1mm" /><rect x="3mm" y="11mm" width="1mm" height="1mm" /><rect x="4mm" y="11mm" width="1mm" height="1mm" /><rect x="8mm" y="11mm" width="1mm" height="1mm" /><rect x="9mm" y="11mm" width="1mm" height="1mm" /><rect x="10mm" y="11mm" width="1mm" height="1mm" /><rect x="13mm" y="11mm" width="1mm" height="1mm" /><rect x="14mm" y="11mm" width="1mm" height="1mm" /><rect x="19mm" y="11mm" width="1mm" height="1mm" /><rect x="20mm" y="11mm" width="1mm" height="1mm" /><rect x="24mm" y="11mm" width="1mm" height="1mm" /><rect x="27mm" y="11mm" width="1mm" height="1mm" /><rect x="28mm" y="11mm" width="1mm" height="1mm" /><rect x="2mm" y="12mm" width="1mm" height="1mm" /><rect x="4mm" y="12mm" width="1mm" height="1mm" /><rect x="5mm" y="12mm" width="1mm" height="1mm" /><rect x="6mm" y="12mm" width="1mm" height="1mm" /><rect x="8mm" y="12mm" width="1mm" height="1mm" /><rect x="9mm" y="12mm" width="1mm" height="1mm" /><rect x="12mm" y="12mm" width="1mm" height="1mm" /><rect x="13mm" y="12mm" width="1mm" height="1mm" /><rect x="15mm" y="12mm" width="1mm" height="1mm" /><rect x="16mm" y="12mm" width="1mm" height="1mm" /><rect x="17mm" y="12mm" width="1mm" height="1mm" /><rect x="21mm" y="12mm" width="1mm" height="1mm" /><rect x="23mm" y="12mm" width="1mm" height="1mm" /><rect x="27mm" y="12mm" width="1mm" height="1mm" /><rect x="0mm" y="13mm" width="1mm" height="1mm" /><rect x="2mm" y="13mm" width="1mm" height="1mm" /><rect x="7mm" y="13mm" width="1mm" height="1mm" /><rect x="8mm" y="13mm" width="1mm" height="1mm" /><rect x="9mm" y="13mm" width="1mm" height="1mm" /><rect x="10mm" y="13mm" width="1mm" height="1mm" /><rect x="11mm" y="13mm" width="1mm" height="1mm" /><rect x="12mm" y="13mm" width="1mm" height="1mm" /><rect x="15mm" y="13mm" width="1mm" height="1mm" /><rect x="17mm" y="13mm" width="1mm" height="1mm" /><rect x="19mm" y="13mm" width="1mm" height="1mm" /><rect x="21mm" y="13mm" width="1mm" height="1mm" /><rect x="22mm" y="13mm" width="1mm" height="1mm" /><rect x="23mm" y="13mm" width="1mm" height="1mm" /><rect x="26mm" y="13mm" width="1mm" height="1mm" /><rect x="27mm" y="13mm" width="1mm" height="1mm" /><rect x="28mm" y="13mm" width="1mm" height="1mm" /><rect x="0mm" y="14mm" width="1mm" height="1mm" /><rect x="2mm" y="14mm" width="1mm" height="1mm" /><rect x="4mm" y="14mm" width="1mm" height="1mm" /><rect x="5mm" y="14mm" width="1mm" height="1mm" /><rect x="6mm" y="14mm" width="1mm" height="1mm" /><rect x="7mm" y="14mm" width="1mm" height="1mm" /><rect x="12mm" y="14mm" width="1mm" height="1mm" /><rect x="13mm" y="14mm" width="1mm" height="1mm" /><rect x="14mm" y="14mm" width="1mm" height="1mm" /><rect x="16mm" y="14mm" width="1mm" height="1mm" /><rect x="17mm" y="14mm" width="1mm" height="1mm" /><rect x="19mm" y="14mm" width="1mm" height="1mm" /><rect x="20mm" y="14mm" width="1mm" height="1mm" /><rect x="22mm" y="14mm" width="1mm" height="1mm" /><rect x="23mm" y="14mm" width="1mm" height="1mm" /><rect x="28mm" y="14mm" width="1mm" height="1mm" /><rect x="5mm" y="15mm" width="1mm" height="1mm" /><rect x="8mm" y="15mm" width="1mm" height="1mm" /><rect x="9mm" y="15mm" width="1mm" height="1mm" /><rect x="10mm" y="15mm" width="1mm" height="1mm" /><rect x="11mm" y="15mm" width="1mm" height="1mm" /><rect x="14mm" y="15mm" width="1mm" height="1mm" /><rect x="15mm" y="15mm" width="1mm" height="1mm" /><rect x="16mm" y="15mm" width="1mm" height="1mm" /><rect x="18mm" y="15mm" width="1mm" height="1mm" /><rect x="23mm" y="15mm" width="1mm" height="1mm" /><rect x="24mm" y="15mm" width="1mm" height="1mm" /><rect x="27mm" y="15mm" width="1mm" height="1mm" /><rect x="0mm" y="16mm" width="1mm" height="1mm" /><rect x="2mm" y="16mm" width="1mm" height="1mm" /><rect x="3mm" y="16mm" width="1mm" height="1mm" /><rect x="4mm" y="16mm" width="1mm" height="1mm" /><rect x="6mm" y="16mm" width="1mm" height="1mm" /><rect x="7mm" y="16mm" width="1mm" height="1mm" /><rect x="12mm" y="16mm" width="1mm" height="1mm" /><rect x="16mm" y="16mm" width="1mm" height="1mm" /><rect x="17mm" y="16mm" width="1mm" height="1mm" /><rect x="18mm" y="16mm" width="1mm" height="1mm" /><rect x="19mm" y="16mm" width="1mm" height="1mm" /><rect x="24mm" y="16mm" width="1mm" height="1mm" /><rect x="25mm" y="16mm" width="1mm" height="1mm" /><rect x="28mm" y="16mm" width="1mm" height="1mm" /><rect x="2mm" y="17mm" width="1mm" height="1mm" /><rect x="3mm" y="17mm" width="1mm" height="1mm" /><rect x="5mm" y="17mm" width="1mm" height="1mm" /><rect x="9mm" y="17mm" width="1mm" height="1mm" /><rect x="10mm" y="17mm" width="1mm" height="1mm" /><rect x="12mm" y="17mm" width="1mm" height="1mm" /><rect x="13mm" y="17mm" width="1mm" height="1mm" /><rect x="15mm" y="17mm" width="1mm" height="1mm" /><rect x="16mm" y="17mm" width="1mm" height="1mm" /><rect x="21mm" y="17mm" width="1mm" height="1mm" /><rect x="25mm" y="17mm" width="1mm" height="1mm" /><rect x="27mm" y="17mm" width="1mm" height="1mm" /><rect x="0mm" y="18mm" width="1mm" height="1mm" /><rect x="3mm" y="18mm" width="1mm" height="1mm" /><rect x="5mm" y="18mm" width="1mm" height="1mm" /><rect x="6mm" y="18mm" width="1mm" height="1mm" /><rect x="7mm" y="18mm" width="1mm" height="1mm" /><rect x="8mm" y="18mm" width="1mm" height="1mm" /><rect x="9mm" y="18mm" width="1mm" height="1mm" /><rect x="10mm" y="18mm" width="1mm" height="1mm" /><rect x="11mm" y="18mm" width="1mm" height="1mm" /><rect x="13mm" y="18mm" width="1mm" height="1mm" /><rect x="14mm" y="18mm" width="1mm" height="1mm" /><rect x="15mm" y="18mm" width="1mm" height="1mm" /><rect x="20mm" y="18mm" width="1mm" height="1mm" /><rect x="21mm" y="18mm" width="1mm" height="1mm" /><rect x="23mm" y="18mm" width="1mm" height="1mm" /><rect x="2mm" y="19mm" width="1mm" height="1mm" /><rect x="3mm" y="19mm" width="1mm" height="1mm" /><rect x="7mm" y="19mm" width="1mm" height="1mm" /><rect x="8mm" y="19mm" width="1mm" height="1mm" /><rect x="9mm" y="19mm" width="1mm" height="1mm" /><rect x="10mm" y="19mm" width="1mm" height="1mm" /><rect x="14mm" y="19mm" width="1mm" height="1mm" /><rect x="15mm" y="19mm" width="1mm" height="1mm" /><rect x="16mm" y="19mm" width="1mm" height="1mm" /><rect x="17mm" y="19mm" width="1mm" height="1mm" /><rect x="19mm" y="19mm" width="1mm" height="1mm" /><rect x="20mm" y="19mm" width="1mm" height="1mm" /><rect x="22mm" y="19mm" width="1mm" height="1mm" /><rect x="23mm" y="19mm" width="1mm" height="1mm" /><rect x="25mm" y="19mm" width="1mm" height="1mm" /><rect x="26mm" y="19mm" width="1mm" height="1mm" /><rect x="1mm" y="20mm" width="1mm" height="1mm" /><rect x="4mm" y="20mm" width="1mm" height="1mm" /><rect x="5mm" y="20mm" width="1mm" height="1mm" /><rect x="6mm" y="20mm" width="1mm" height="1mm" /><rect x="8mm" y="20mm" width="1mm" height="1mm" /><rect x="9mm" y="20mm" width="1mm" height="1mm" /><rect x="10mm" y="20mm" width="1mm" height="1mm" /><rect x="12mm" y="20mm" width="1mm" height="1mm" /><rect x="17mm" y="20mm" width="1mm" height="1mm" /><rect x="19mm" y="20mm" width="1mm" height="1mm" /><rect x="20mm" y="20mm" width="1mm" height="1mm" /><rect x="21mm" y="20mm" width="1mm" height="1mm" /><rect x="22mm" y="20mm" width="1mm" height="1mm" /><rect x="23mm" y="20mm" width="1mm" height="1mm" /><rect x="24mm" y="20mm" width="1mm" height="1mm" /><rect x="25mm" y="20mm" width="1mm" height="1mm" /><rect x="26mm" y="20mm" width="1mm" height="1mm" /><rect x="28mm" y="20mm" width="1mm" height="1mm" /><rect x="8mm" y="21mm" width="1mm" height="1mm" /><rect x="14mm" y="21mm" width="1mm" height="1mm" /><rect x="20mm" y="21mm" width="1mm" height="1mm" /><rect x="24mm" y="21mm" width="1mm" height="1mm" /><rect x="25mm" y="21mm" width="1mm" height="1mm" /><rect x="28mm" y="21mm" width="1mm" height="1mm" /><rect x="0mm" y="22mm" width="1mm" height="1mm" /><rect x="1mm" y="22mm" width="1mm" height="1mm" /><rect x="2mm" y="22mm" width="1mm" height="1mm" /><rect x="3mm" y="22mm" width="1mm" height="1mm" /><rect x="4mm" y="22mm" width="1mm" height="1mm" /><rect x="5mm" y="22mm" width="1mm" height="1mm" /><rect x="6mm" y="22mm" width="1mm" height="1mm" /><rect x="8mm" y="22mm" width="1mm" height="1mm" /><rect x="9mm" y="22mm" width="1mm" height="1mm" /><rect x="10mm" y="22mm" width="1mm" height="1mm" /><rect x="11mm" y="22mm" width="1mm" height="1mm" /><rect x="12mm" y="22mm" width="1mm" height="1mm" /><rect x="13mm" y="22mm" width="1mm" height="1mm" /><rect x="17mm" y="22mm" width="1mm" height="1mm" /><rect x="18mm" y="22mm" width="1mm" height="1mm" /><rect x="19mm" y="22mm" width="1mm" height="1mm" /><rect x="20mm" y="22mm" width="1mm" height="1mm" /><rect x="22mm" y="22mm" width="1mm" height="1mm" /><rect x="24mm" y="22mm" width="1mm" height="1mm" /><rect x="26mm" y="22mm" width="1mm" height="1mm" /><rect x="0mm" y="23mm" width="1mm" height="1mm" /><rect x="6mm" y="23mm" width="1mm" height="1mm" /><rect x="8mm" y="23mm" width="1mm" height="1mm" /><rect x="12mm" y="23mm" width="1mm" height="1mm" /><rect x="13mm" y="23mm" width="1mm" height="1mm" /><rect x="15mm" y="23mm" width="1mm" height="1mm" /><rect x="16mm" y="23mm" width="1mm" height="1mm" /><rect x="18mm" y="23mm" width="1mm" height="1mm" /><rect x="20mm" y="23mm" width="1mm" height="1mm" /><rect x="24mm" y="23mm" width="1mm" height="1mm" /><rect x="25mm" y="23mm" width="1mm" height="1mm" /><rect x="0mm" y="24mm" width="1mm" height="1mm" /><rect x="2mm" y="24mm" width="1mm" height="1mm" /><rect x="3mm" y="24mm" width="1mm" height="1mm" /><rect x="4mm" y="24mm" width="1mm" height="1mm" /><rect x="6mm" y="24mm" width="1mm" height="1mm" /><rect x="9mm" y="24mm" width="1mm" height="1mm" /><rect x="10mm" y="24mm" width="1mm" height="1mm" /><rect x="15mm" y="24mm" width="1mm" height="1mm" /><rect x="16mm" y="24mm" width="1mm" height="1mm" /><rect x="17mm" y="24mm" width="1mm" height="1mm" /><rect x="18mm" y="24mm" width="1mm" height="1mm" /><rect x="20mm" y="24mm" width="1mm" height="1mm" /><rect x="21mm" y="24mm" width="1mm" height="1mm" /><rect x="22mm" y="24mm" width="1mm" height="1mm" /><rect x="23mm" y="24mm" width="1mm" height="1mm" /><rect x="24mm" y="24mm" width="1mm" height="1mm" /><rect x="25mm" y="24mm" width="1mm" height="1mm" /><rect x="26mm" y="24mm" width="1mm" height="1mm" /><rect x="27mm" y="24mm" width="1mm" height="1mm" /><rect x="28mm" y="24mm" width="1mm" height="1mm" /><rect x="0mm" y="25mm" width="1mm" height="1mm" /><rect x="2mm" y="25mm" width="1mm" height="1mm" /><rect x="3mm" y="25mm" width="1mm" height="1mm" /><rect x="4mm" y="25mm" width="1mm" height="1mm" /><rect x="6mm" y="25mm" width="1mm" height="1mm" /><rect x="8mm" y="25mm" width="1mm" height="1mm" /><rect x="9mm" y="25mm" width="1mm" height="1mm" /><rect x="11mm" y="25mm" width="1mm" height="1mm" /><rect x="12mm" y="25mm" width="1mm" height="1mm" /><rect x="14mm" y="25mm" width="1mm" height="1mm" /><rect x="15mm" y="25mm" width="1mm" height="1mm" /><rect x="17mm" y="25mm" width="1mm" height="1mm" /><rect x="18mm" y="25mm" width="1mm" height="1mm" /><rect x="23mm" y="25mm" width="1mm" height="1mm" /><rect x="25mm" y="25mm" width="1mm" height="1mm" /><rect x="26mm" y="25mm" width="1mm" height="1mm" /><rect x="28mm" y="25mm" width="1mm" height="1mm" /><rect x="0mm" y="26mm" width="1mm" height="1mm" /><rect x="2mm" y="26mm" width="1mm" height="1mm" /><rect x="3mm" y="26mm" width="1mm" height="1mm" /><rect x="4mm" y="26mm" width="1mm" height="1mm" /><rect x="6mm" y="26mm" width="1mm" height="1mm" /><rect x="8mm" y="26mm" width="1mm" height="1mm" /><rect x="9mm" y="26mm" width="1mm" height="1mm" /><rect x="10mm" y="26mm" width="1mm" height="1mm" /><rect x="11mm" y="26mm" width="1mm" height="1mm" /><rect x="12mm" y="26mm" width="1mm" height="1mm" /><rect x="13mm" y="26mm" width="1mm" height="1mm" /><rect x="16mm" y="26mm" width="1mm" height="1mm" /><rect x="19mm" y="26mm" width="1mm" height="1mm" /><rect x="21mm" y="26mm" width="1mm" height="1mm" /><rect x="23mm" y="26mm" width="1mm" height="1mm" /><rect x="28mm" y="26mm" width="1mm" height="1mm" /><rect x="0mm" y="27mm" width="1mm" height="1mm" /><rect x="6mm" y="27mm" width="1mm" height="1mm" /><rect x="9mm" y="27mm" width="1mm" height="1mm" /><rect x="10mm" y="27mm" width="1mm" height="1mm" /><rect x="12mm" y="27mm" width="1mm" height="1mm" /><rect x="14mm" y="27mm" width="1mm" height="1mm" /><rect x="15mm" y="27mm" width="1mm" height="1mm" /><rect x="18mm" y="27mm" width="1mm" height="1mm" /><rect x="19mm" y="27mm" width="1mm" height="1mm" /><rect x="20mm" y="27mm" width="1mm" height="1mm" /><rect x="25mm" y="27mm" width="1mm" height="1mm" /><rect x="27mm" y="27mm" width="1mm" height="1mm" /><rect x="0mm" y="28mm" width="1mm" height="1mm" /><rect x="1mm" y="28mm" width="1mm" height="1mm" /><rect x="2mm" y="28mm" width="1mm" height="1mm" /><rect x="3mm" y="28mm" width="1mm" height="1mm" /><rect x="4mm" y="28mm" width="1mm" height="1mm" /><rect x="5mm" y="28mm" width="1mm" height="1mm" /><rect x="6mm" y="28mm" width="1mm" height="1mm" /><rect x="8mm" y="28mm" width="1mm" height="1mm" /><rect x="11mm" y="28mm" width="1mm" height="1mm" /><rect x="12mm" y="28mm" width="1mm" height="1mm" /><rect x="13mm" y="28mm" width="1mm" height="1mm" /><rect x="14mm" y="28mm" width="1mm" height="1mm" /><rect x="16mm" y="28mm" width="1mm" height="1mm" /><rect x="20mm" y="28mm" width="1mm" height="1mm" /><rect x="21mm" y="28mm" width="1mm" height="1mm" /><rect x="22mm" y="28mm" width="1mm" height="1mm" /><rect x="27mm" y="28mm" width="1mm" height="1mm" /></svg>