<svg xmlns="http://www.w3.org/2000/svg" width="358" height="61" viewBox="0 0 358 61" xmlns:xlink="http://www.w3.org/1999/xlink">
  <defs>
    <linearGradient id="a" x1="50.001%" x2="50.001%" y1="97.405%" y2="1.224%">
      <stop stop-color="#0075A8" offset="0%"/>
      <stop stop-color="#47B4D3" offset="100%"/>
    </linearGradient>
    <polygon id="b" points="196.27 44.515 196.27 .229 .686 .229 .686 44.515 196.27 44.515"/>
  </defs>
  <g fill="none" fill-rule="evenodd">
    <path fill="url(#a)" d="M88.752,14.5559 C88.752,23.9749 98.83,26.0209 106.363,27.1679 L106.363,27.1679 C113.734,28.3149 115.208,29.2959 115.208,31.6719 L115.208,31.6719 C115.208,34.1289 111.933,35.4419 107.593,35.4419 L107.593,35.4419 C104.397,35.4419 100.057,34.1289 98.58,30.5249 L98.58,30.5249 L87.608,30.5249 C88.917,39.6169 96.862,45.2699 107.593,45.2699 L107.593,45.2699 C118.404,45.2699 126.101,39.3699 126.101,31.0179 L126.101,31.0179 C126.101,21.8449 118.569,19.5489 108.085,17.8309 L108.085,17.8309 C102.84,17.0099 99.727,16.2739 99.727,14.0619 L99.727,14.0619 C99.727,12.5089 101.776,10.7039 106.771,10.7039 L106.771,10.7039 C110.786,10.7039 113.16,12.2609 113.816,14.2269 L113.816,14.2269 L125.039,14.2269 C123.647,6.2809 116.438,1.0399 106.771,1.0399 L106.771,1.0399 C94.567,1.0399 88.752,7.9189 88.752,14.5559 L88.752,14.5559 Z M46.736,15.0449 L57.547,15.0449 C58.532,11.4429 62.955,9.7209 66.804,9.7209 L66.804,9.7209 C71.633,9.7209 74.501,11.5219 74.501,13.7329 L74.501,13.7329 C74.501,17.1749 69.505,17.9959 62.464,18.6489 L62.464,18.6489 C53.124,19.4679 45.18,21.9269 45.18,31.4269 L45.18,31.4269 C45.18,40.5999 53.372,45.1049 62.303,45.1049 L62.303,45.1049 C68.199,45.1049 72.457,43.3029 75.24,40.3559 L75.24,40.3559 C75.481,41.9099 75.814,43.2219 76.306,44.2839 L76.306,44.2839 L86.215,44.2839 C85.645,42.6479 84.986,39.4529 84.986,37.4059 L84.986,37.4059 L84.986,15.4529 C84.986,12.0989 83.673,1.0399 66.557,1.0399 L66.557,1.0399 C55.502,1.0399 47.802,7.0199 46.736,15.0449 L46.736,15.0449 Z M56.073,31.5069 C56.073,28.3979 59.35,27.2499 64.677,26.6759 L64.677,26.6759 C69.097,26.1849 72.618,25.4479 74.913,23.9749 L74.913,23.9749 L74.913,27.9069 C74.913,33.3079 69.67,35.5219 63.2,35.5219 L63.2,35.5219 C58.859,35.5219 56.073,33.8829 56.073,31.5069 L56.073,31.5069 Z M0,23.2359 C0,35.4419 9.749,45.2699 21.624,45.2699 L21.624,45.2699 C32.108,45.2699 39.562,39.4529 42.019,30.8549 L42.019,30.8549 L30.469,30.8549 C28.669,34.2119 25.143,35.7689 21.542,35.7689 L21.542,35.7689 C16.464,35.7689 12.37,32.5749 10.975,27.4119 L10.975,27.4119 L42.836,27.4119 C44.393,10.7039 34.074,1.0399 21.624,1.0399 L21.624,1.0399 C9.749,1.0399 0,11.0309 0,23.2359 L0,23.2359 Z M21.542,10.5429 C26.7,10.5429 30.799,13.6519 32.108,18.5699 L32.108,18.5699 L11.14,18.5699 C12.694,13.6519 16.625,10.5429 21.542,10.5429 L21.542,10.5429 Z M155.979,2.1039 L145.907,32.5749 L135.585,2.1039 L124.123,2.1039 L140.416,45.0229 C138.615,49.8539 136.079,51.1659 130.672,50.8369 L130.672,50.8369 L130.672,60.6649 C139.516,61.2419 145.984,59.7629 150.083,48.7889 L150.083,48.7889 L167.529,2.1039 L155.979,2.1039 Z"/>
    <g transform="translate(161 .77)">
      <mask id="c" fill="white">
        <use xlink:href="#b"/>
      </mask>
      <path fill="#1D466C" d="M164.3802,17.7798 C165.9332,12.8598 169.8742,9.7428 174.7942,9.7428 C179.9592,9.7428 184.0642,12.8598 185.3702,17.7798 L164.3802,17.7798 Z M196.1152,26.6358 C197.6712,9.9078 187.3422,0.2288 174.8772,0.2288 C162.9852,0.2288 153.2272,10.2348 153.2272,22.4558 C153.2272,34.6708 162.9852,44.5148 174.8772,44.5148 C185.3702,44.5148 192.8402,38.6938 195.2972,30.0808 L183.7312,30.0808 C181.9272,33.4408 178.4022,35.0068 174.7942,35.0068 C169.7092,35.0068 165.6072,31.8048 164.2152,26.6358 L196.1152,26.6358 Z M149.9622,18.8478 C149.9622,7.7748 143.3962,0.2288 132.0812,0.2288 C126.6702,0.2288 122.2412,2.5248 119.2042,6.2198 C116.2552,2.4468 111.8262,0.2288 106.5762,0.2288 C101.9862,0.2288 98.2922,2.1948 95.6742,5.3968 L95.6742,1.2978 L85.2532,1.2978 L85.2532,43.5318 L96.1592,43.5318 L96.1592,18.8478 C96.1592,14.0928 99.5222,10.4838 104.2812,10.4838 C111.4172,10.4838 112.1532,16.3868 112.1532,18.8478 L112.1532,43.5318 L123.0652,43.5318 L123.0652,18.8478 C123.0652,14.0928 126.4222,10.4838 131.2602,10.4838 C138.3142,10.4838 139.1382,16.3868 139.1382,18.8478 L139.1382,43.5318 L149.9622,43.5318 L149.9622,18.8478 Z M70.6442,27.1318 C70.6442,32.5438 65.3912,34.7548 58.9112,34.7548 C54.5682,34.7548 51.7782,33.1178 51.7782,30.7368 C51.7782,27.6238 55.0592,26.4728 60.3922,25.8988 C64.8172,25.4078 68.3462,24.6688 70.6442,23.1948 L70.6442,27.1318 Z M72.0362,43.5318 L81.9562,43.5318 C81.3852,41.8928 80.7292,38.6938 80.7292,36.6428 L80.7292,14.6638 C80.7292,11.3028 79.4202,0.2288 62.2782,0.2288 C51.2042,0.2288 43.4942,6.2198 42.4292,14.2548 L53.2552,14.2548 C54.2412,10.6478 58.6702,8.9238 62.5252,8.9238 C67.3632,8.9238 70.2292,10.7278 70.2292,12.9388 C70.2292,16.3868 65.2292,17.2058 58.1762,17.8618 C48.8262,18.6798 40.8722,21.1398 40.8722,30.6538 C40.8722,39.8398 49.0742,44.3498 58.0112,44.3498 C63.9202,44.3498 68.1812,42.5488 70.9682,39.5928 C71.2152,41.1548 71.5412,42.4648 72.0362,43.5318 L72.0362,43.5318 Z M38.4122,18.8478 C38.4122,7.6918 31.8532,0.2288 21.9272,0.2288 C17.4222,0.2288 13.7282,2.1948 11.0242,5.3968 L0.6862,32.9968 L0.6862,43.5318 L11.5122,43.5318 L11.5122,18.8478 C11.5122,14.0928 14.8762,10.4838 19.7142,10.4838 C26.8532,10.4838 27.5862,16.3868 27.5862,18.8478 L27.5862,43.5318 L38.4122,43.5318 L38.4122,18.8478 Z" mask="url(#c)"/>
    </g>
  </g>
</svg>
